<svg xmlns="http://www.w3.org/2000/svg" viewBox="0 0 240 240">
  <rect width="240" height="240" rx="28" fill="#ffffff"/>
  <rect x="18" y="18" width="204" height="204" rx="18" fill="#f4f1ff"/>
  <g fill="#111827">
    <rect x="34" y="34" width="54" height="54" rx="6"/>
    <rect x="152" y="34" width="54" height="54" rx="6"/>
    <rect x="34" y="152" width="54" height="54" rx="6"/>
    <rect x="46" y="46" width="30" height="30" rx="4" fill="#fff"/>
    <rect x="164" y="46" width="30" height="30" rx="4" fill="#fff"/>
    <rect x="46" y="164" width="30" height="30" rx="4" fill="#fff"/>
    <rect x="58" y="58" width="8" height="8"/>
    <rect x="176" y="58" width="8" height="8"/>
    <rect x="58" y="176" width="8" height="8"/>
    <rect x="108" y="36" width="14" height="14"/>
    <rect x="126" y="36" width="14" height="14"/>
    <rect x="104" y="62" width="18" height="18"/>
    <rect x="134" y="68" width="12" height="12"/>
    <rect x="100" y="100" width="18" height="18"/>
    <rect x="124" y="96" width="12" height="12"/>
    <rect x="148" y="104" width="18" height="18"/>
    <rect x="98" y="132" width="12" height="12"/>
    <rect x="120" y="126" width="22" height="22"/>
    <rect x="154" y="136" width="14" height="14"/>
    <rect x="180" y="128" width="18" height="18"/>
    <rect x="100" y="166" width="18" height="18"/>
    <rect x="126" y="160" width="12" height="12"/>
    <rect x="146" y="168" width="20" height="20"/>
    <rect x="176" y="176" width="22" height="22"/>
    <rect x="196" y="104" width="10" height="10"/>
    <rect x="72" y="108" width="12" height="12"/>
    <rect x="34" y="108" width="20" height="20"/>
  </g>
  <rect x="72" y="104" width="96" height="32" rx="16" fill="#7c5cff"/>
  <text x="120" y="126" text-anchor="middle" font-size="18" font-weight="700" fill="#fff" font-family="Arial, sans-serif">微信</text>
</svg>
